{"title":"Planet 51 (2009) NOR.SUB. DVDRip","uid":6746126,"size":945942341,"categoryP":"video","categoryS":"movies","magnet":"?xt=urn:btih:85778f15456d1f32f2cf4ec1ae2fce76f80a2a99&amp;dn=Planet+51+%282009%29+NOR.SUB.+DVDRip+&amp;tr=udp%3A%2F%2Ftracker.openbittorrent.com%3A80&amp;tr=udp%3A%2F%2Fopen.demonii.com%3A1337&amp;tr=udp%3A%2F%2Ftracker.coppersurfer.tk%3A6969&amp;tr=udp%3A%2F%2Fexodus.desync.com%3A6969","seeders":0,"leechers":1,"uploader":"brumskiller","files":5,"time":1318694666,"description":"Before Download: note that this is NORWEGIAN subs, dont complain about it if you \n\ndidnt read the descripton.\n\n\nFormat                           : AVI\nFormat/Info                      : Audio Video Interleave\nFile size                        : 902 MiB\nDuration                         : 1h 26mn\nOverall bit rate                 : 1 459 Kbps\nWriting application              : VirtualDubMod 1.5.10.2 (build 2542/release)\nWriting library                  : VirtualDubMod build 2542/release\nOriginal source form             : MAX TORRENTZ\n\n\nVideo\nFormat                           : xvid\nCodec ID                         : xvid\nDuration                         : 1h 26mn\nBit rate                         : 1 328 Kbps\nWidth                            : 720 pixels\nHeight                           : 320 pixels\nDisplay aspect ratio             : 2.25:1\nFrame rate                       : 25.000 fps\nResolution                       : 24 bits\nBits/(Pixel*Frame)               : 0.231\nStream size                      : 821 MiB (91%)\n\nAudio\nID                               : 1\nFormat                           : MPEG Audio\nFormat version                   : Version 1\nFormat profile                   : Layer 3\nCodec ID                         : 55\nCodec ID/Hint                    : MP3\nDuration                         : 1h 20mn\nBit rate mode                    : Constant\nBit rate                         : 128 Kbps\nChannel(s)                       : 2 channels\nSampling rate                    : 44.1 KHz\nResolution                       : 16 bits\nStream size                      : 73.8 MiB (8%)\nAlignment                        : Aligned on interleaves\nInterleave, duration             : 28 ms (0.70 video frame)\nInterleave, preload duration     : 26 ms\n  ","torrent":{"xt":"urn:btih:85778f15456d1f32f2cf4ec1ae2fce76f80a2a99","amp;dn":"Planet+51+%282009%29+NOR.SUB.+DVDRip+","amp;tr":["udp%3A%2F%2Ftracker.openbittorrent.com%3A80","udp%3A%2F%2Fopen.demonii.com%3A1337","udp%3A%2F%2Ftracker.coppersurfer.tk%3A6969","udp%3A%2F%2Fexodus.desync.com%3A6969"],"infoHash":"85778f15456d1f32f2cf4ec1ae2fce76f80a2a99","infoHashBuffer":{"type":"Buffer","data":[133,119,143,21,69,109,31,50,242,207,78,193,174,47,206,118,248,10,42,153]},"announce":[],"urlList":[]}}